<svg xmlns="http://www.w3.org/2000/svg" viewBox="0 0 402 108" role="img" aria-label="WhatsApp: +57 316 761 9309">
  <defs>
    <linearGradient id="bg" x1="0%" y1="0%" x2="100%" y2="100%">
      <stop offset="0%" stop-color="#020617">
        <animate attributeName="stop-color" values="#020617;#052e16;#064e3b;#020617" dur="6s" repeatCount="indefinite"/>
      </stop>
      <stop offset="50%" stop-color="#0f172a">
        <animate attributeName="stop-color" values="#0f172a;#064e3b;#0c4a6e;#0f172a" dur="6s" repeatCount="indefinite"/>
      </stop>
      <stop offset="100%" stop-color="#064e3b">
        <animate attributeName="stop-color" values="#064e3b;#0c4a6e;#022c22;#064e3b" dur="6s" repeatCount="indefinite"/>
      </stop>
    </linearGradient>
    <linearGradient id="brd" x1="0%" y1="0%" x2="100%" y2="0%">
      <stop offset="0%" stop-color="#25D366">
        <animate attributeName="stop-color" values="#25D366;#22d3ee;#818cf8;#25D366" dur="6s" repeatCount="indefinite"/>
      </stop>
      <stop offset="50%" stop-color="#22d3ee">
        <animate attributeName="stop-color" values="#22d3ee;#818cf8;#25D366;#22d3ee" dur="6s" repeatCount="indefinite"/>
      </stop>
      <stop offset="100%" stop-color="#818cf8">
        <animate attributeName="stop-color" values="#818cf8;#25D366;#22d3ee;#818cf8" dur="6s" repeatCount="indefinite"/>
      </stop>
    </linearGradient>
    <linearGradient id="sweep" x1="0%" y1="0%" x2="100%" y2="0%">
      <stop offset="0%" stop-color="#ffffff" stop-opacity="0"/>
      <stop offset="50%" stop-color="#5eead4" stop-opacity="0.25"/>
      <stop offset="100%" stop-color="#ffffff" stop-opacity="0"/>
    </linearGradient>
    <radialGradient id="halo" cx="50%" cy="50%" r="50%">
      <stop offset="0%" stop-color="#25D366" stop-opacity="0.35"/>
      <stop offset="100%" stop-color="#25D366" stop-opacity="0"/>
    </radialGradient>
    <filter id="glow" x="-40%" y="-40%" width="180%" height="180%">
      <feGaussianBlur stdDeviation="5" result="b"/>
      <feMerge>
        <feMergeNode in="b"/>
        <feMergeNode in="SourceGraphic"/>
      </feMerge>
    </filter>
    <clipPath id="clip">
      <rect x="0" y="0" width="402" height="108" rx="26"/>
    </clipPath>
  </defs>

  <rect width="402" height="108" rx="26" fill="url(#bg)"/>
  <rect x="2" y="2" width="398" height="104" rx="24" fill="none" stroke="url(#brd)" stroke-width="3">
    <animate attributeName="opacity" values="0.55;1;0.55" dur="2.2s" repeatCount="indefinite"/>
  </rect>

  <g clip-path="url(#clip)">
    <rect x="-460" y="0" width="460" height="108" fill="url(#sweep)">
      <animate attributeName="x" values="-460;460" dur="3.2s" repeatCount="indefinite"/>
    </rect>
  </g>

  <circle cx="54" cy="54" fill="url(#halo)">
    <animate attributeName="r" values="46;62;46" dur="2.4s" repeatCount="indefinite"/>
  </circle>

  <g filter="url(#glow)">
    <circle cx="54" cy="54" r="33" fill="none" stroke="#25D366" stroke-width="2" stroke-opacity="0.6">
      <animate attributeName="stroke-opacity" values="0.3;1;0.3" dur="2s" repeatCount="indefinite"/>
    </circle>
    <clipPath id="iconClip">
      <circle cx="54" cy="54" r="32"/>
    </clipPath>
    <path clip-path="url(#iconClip)" fill="#25D366" transform="translate(26 26) scale(2.3333)" d="M17.472 14.382c-.297-.149-1.758-.867-2.03-.967-.273-.099-.471-.148-.67.15-.197.297-.767.966-.94 1.164-.173.199-.347.223-.644.075-.297-.15-1.255-.463-2.39-1.475-.883-.788-1.48-1.761-1.653-2.059-.173-.297-.018-.458.13-.606.134-.133.298-.347.446-.52.149-.174.198-.298.298-.497.099-.198.05-.371-.025-.52-.075-.149-.669-1.612-.916-2.207-.242-.579-.487-.5-.669-.51-.173-.008-.371-.01-.57-.01-.198 0-.52.074-.792.372-.272.297-1.04 1.016-1.04 2.479 0 1.462 1.065 2.875 1.213 3.074.149.198 2.096 3.2 5.077 4.487.709.306 1.262.489 1.694.625.712.227 1.36.195 1.871.118.571-.085 1.758-.719 2.006-1.413.248-.694.248-1.289.173-1.413-.074-.124-.272-.198-.57-.347m-5.421 7.403h-.004a9.87 9.87 0 01-5.031-1.378l-.361-.214-3.741.982.998-3.648-.235-.374a9.86 9.86 0 01-1.51-5.26c.001-5.45 4.436-9.884 9.888-9.884 2.64 0 5.122 1.03 6.988 2.898a9.825 9.825 0 012.893 6.994c-.003 5.45-4.437 9.884-9.885 9.884m8.413-18.297A11.815 11.815 0 0012.05 0C5.495 0 .16 5.335.157 11.892c0 2.096.547 4.142 1.588 5.945L.057 24l6.305-1.654a11.882 11.882 0 005.683 1.448h.005c6.554 0 11.89-5.335 11.893-11.893a11.821 11.821 0 00-3.48-8.413Z"/>
  </g>

  <text x="124" y="50" font-family="'Segoe UI','JetBrains Mono',Consolas,monospace" font-size="27" font-weight="800" fill="#ffffff" letter-spacing="1">WhatsApp</text>
  <text x="124" y="82" font-family="'Segoe UI','JetBrains Mono',Consolas,monospace" font-size="23" font-weight="700" fill="#5eead4" letter-spacing="1.5">+57 · 316 761 9309</text>

  <g>
    <circle cx="372" cy="18" r="6" fill="#25D366" opacity="0.25">
      <animate attributeName="r" values="6;14;6" dur="1.6s" repeatCount="indefinite"/>
      <animate attributeName="opacity" values="0.35;0;0.35" dur="1.6s" repeatCount="indefinite"/>
    </circle>
    <circle cx="372" cy="18" r="5" fill="#22c55e">
      <animate attributeName="opacity" values="1;0.3;1" dur="1.6s" repeatCount="indefinite"/>
    </circle>
  </g>
</svg>